# WaveFront *.obj file (generated by Autodesk ATF)

mtllib infinity.mtl

g Body1

v 0.000000 -0.193911 -0.140000
v 0.000000 -0.193911 0.140000
v -0.425817 -0.601995 0.140000
v -0.425817 -0.601995 -0.140000
v -0.647510 0.387076 -0.140000
v -0.647510 0.387076 0.140000
v -1.004145 0.420098 0.140000
v -1.004145 0.420098 -0.140000
v -1.089561 0.709204 0.140000
v -0.530363 0.657427 0.140000
v -0.530363 0.657427 -0.140000
v -1.089561 0.709204 -0.140000
v -1.270328 0.210561 0.140000
v -1.270328 0.210561 -0.140000
v -1.550328 0.346493 0.140000
v -1.550328 0.346493 -0.140000
v -1.270328 -0.158471 0.140000
v -1.270328 -0.158471 -0.140000
v -1.550328 -0.266633 0.140000
v -1.550328 -0.266633 -0.140000
v -1.029209 -0.423994 0.140000
v -1.029209 -0.423994 -0.140000
v -1.132692 -0.726540 0.140000
v -1.132692 -0.726540 -0.140000
v -0.558154 -0.340999 0.140000
v -0.558154 -0.340999 -0.140000
v -0.206505 -0.003994 0.140000
v -0.206505 -0.003994 -0.140000
v 0.000000 0.187117 0.140000
v -0.000000 0.187117 -0.140000
v 0.530363 0.657427 0.140000
v 0.530363 0.657427 -0.140000
v 0.425817 -0.601995 0.140000
v 1.132692 -0.726540 0.140000
v 1.550328 -0.266633 0.140000
v 1.550328 0.346493 0.140000
v 1.089561 0.709204 0.140000
v 0.647510 0.387076 0.140000
v 1.004145 0.420098 0.140000
v 1.270328 0.210561 0.140000
v 1.270328 -0.158471 0.140000
v 1.029209 -0.423994 0.140000
v 0.558154 -0.340999 0.140000
v 0.206505 -0.003994 0.140000
v 1.004145 0.420098 -0.140000
v 1.270328 0.210561 -0.140000
v 1.550328 0.346493 -0.140000
v 1.089561 0.709204 -0.140000
v 1.270328 -0.158471 -0.140000
v 1.550328 -0.266633 -0.140000
v 1.029209 -0.423994 -0.140000
v 1.132692 -0.726540 -0.140000
v 0.558154 -0.340999 -0.140000
v 0.425817 -0.601995 -0.140000
v 0.206505 -0.003994 -0.140000
v 0.647510 0.387076 -0.140000
vt 0.000000 0.134170 0.000000
vt 0.280000 0.134170 0.000000
vt 0.000000 0.723960 0.000000
vt 0.280000 0.723960 0.000000
vt 0.280000 0.414013 0.000000
vt 0.000000 0.414013 0.000000
vt 0.280000 0.055854 0.000000
vt 0.000000 0.055854 0.000000
vt 0.280000 0.505736 0.000000
vt 0.000000 0.505736 0.000000
vt 0.280000 -0.055854 0.000000
vt 0.000000 -0.055854 0.000000
vt 0.280000 0.406727 0.000000
vt 0.000000 0.406727 0.000000
vt 0.280000 0.067966 0.000000
vt 0.000000 0.067966 0.000000
vt 0.280000 0.518434 0.000000
vt 0.000000 0.518434 0.000000
vt 0.280000 -0.067966 0.000000
vt 0.000000 -0.067966 0.000000
vt 0.280000 0.423113 0.000000
vt 0.000000 0.423113 0.000000
vt 0.280000 0.054081 0.000000
vt 0.000000 0.054081 0.000000
vt 0.280000 0.559045 0.000000
vt 0.000000 0.559045 0.000000
vt 0.280000 -0.054081 0.000000
vt 0.000000 -0.054081 0.000000
vt 0.280000 0.435870 0.000000
vt 0.000000 0.435870 0.000000
vt 0.280000 0.077205 0.000000
vt 0.000000 0.077205 0.000000
vt 0.280000 0.544031 0.000000
vt 0.000000 0.544031 0.000000
vt 0.280000 -0.077205 0.000000
vt 0.000000 -0.077205 0.000000
vt 0.280000 0.520832 0.000000
vt -0.000000 0.520832 0.000000
vt 0.280000 0.042521 0.000000
vt -0.000000 0.042521 0.000000
vt 0.280000 0.675241 0.000000
vt 0.000000 0.675241 0.000000
vt 0.280000 -0.042521 0.000000
vt 0.000000 -0.042521 0.000000
vt 0.280000 0.638918 0.000000
vt -0.000000 0.638918 0.000000
vt 0.280000 0.151856 0.000000
vt -0.000000 0.151856 0.000000
vt 0.280000 0.241715 0.000000
vt 0.000000 0.241715 0.000000
vt 0.280000 -0.347710 0.000000
vt 0.000000 -0.347710 0.000000
vt 0.280000 0.269423 0.000000
vt 0.000000 0.269423 0.000000
vt 0.280000 -0.439432 0.000000
vt 0.000000 -0.439432 0.000000
vt 0.280000 0.662994 0.000000
vt 0.000000 0.662994 0.000000
vt 0.280000 -0.045861 0.000000
vt 0.000000 -0.045861 0.000000
vt -0.613814 1.451733 0.000000
vt -0.518813 0.882394 0.000000
vt -0.310666 1.070510 0.000000
vt -0.348745 0.659259 0.000000
vt -0.139408 0.847264 0.000000
vt 0.000000 0.184076 0.000000
vt 0.280000 0.275799 0.000000
vt -0.000000 -0.174084 0.000000
vt 0.280000 -0.285791 0.000000
vt -0.123648 -0.711154 0.000000
vt -0.233186 -0.419814 0.000000
vt -0.600646 -0.385790 0.000000
vt -0.885900 1.344022 0.000000
vt -0.653025 1.928433 0.000000
vt -0.944741 2.059369 0.000000
vt -0.448288 2.432824 0.000000
vt -0.366402 2.144044 0.000000
vt 0.001058 2.110020 0.000000
vt 0.162227 2.376294 0.000000
vt 0.185161 1.825652 0.000000
vt 0.480911 1.884049 0.000000
vt 0.377797 1.332007 0.000000
vt 0.119399 1.473581 0.000000
vt -0.716735 0.340179 0.000000
vt -0.964419 0.496016 0.000000
vt -0.842808 -0.121218 0.000000
vt -1.153605 -0.196365 0.000000
vt -0.734163 -0.654625 0.000000
vt 0.280000 0.406727 0.000000
vt 0.000000 0.406727 0.000000
vt 0.280000 0.067966 0.000000
vt 0.000000 0.067966 0.000000
vt 0.280000 0.518434 0.000000
vt 0.000000 0.518434 0.000000
vt 0.280000 -0.067966 0.000000
vt -0.000000 -0.067966 0.000000
vt 0.280000 0.423113 0.000000
vt 0.000000 0.423113 0.000000
vt 0.280000 0.054081 0.000000
vt 0.000000 0.054081 0.000000
vt 0.280000 0.559045 0.000000
vt 0.000000 0.559045 0.000000
vt 0.280000 -0.054081 0.000000
vt 0.000000 -0.054081 0.000000
vt 0.280000 0.435870 0.000000
vt 0.000000 0.435870 0.000000
vt 0.280000 0.077205 0.000000
vt 0.000000 0.077205 0.000000
vt 0.280000 0.544031 0.000000
vt 0.000000 0.544031 0.000000
vt 0.280000 -0.077205 0.000000
vt -0.000000 -0.077205 0.000000
vt 0.280000 0.520832 0.000000
vt 0.000000 0.520832 0.000000
vt 0.280000 0.042521 0.000000
vt 0.000000 0.042521 0.000000
vt 0.280000 0.675241 0.000000
vt 0.000000 0.675241 0.000000
vt 0.280000 -0.042521 0.000000
vt 0.000000 -0.042521 0.000000
vt 0.280000 0.638918 0.000000
vt 0.000000 0.638918 0.000000
vt 0.280000 0.151856 0.000000
vt 0.000000 0.151856 0.000000
vt 0.000000 0.134170 0.000000
vt 0.280000 0.134170 0.000000
vt 0.000000 0.723960 0.000000
vt 0.280000 0.723960 0.000000
vt 0.280000 0.635286 0.000000
vt 0.000000 0.635286 0.000000
vt 0.280000 0.045861 0.000000
vt 0.000000 0.045861 0.000000
vt 0.160601 1.473581 0.000000
vt 0.419408 0.847264 0.000000
vt 0.590666 1.070510 0.000000
vt 0.628745 0.659259 0.000000
vt 0.798813 0.882394 0.000000
vt 0.996735 0.340179 0.000000
vt 1.244419 0.496016 0.000000
vt 1.122808 -0.121218 0.000000
vt 1.433605 -0.196365 0.000000
vt 1.014163 -0.654625 0.000000
vt 0.880646 -0.385790 0.000000
vt 0.403648 -0.711154 0.000000
vt 0.513186 -0.419814 0.000000
vt 0.280000 -0.174084 0.000000
vt -0.097797 1.332007 0.000000
vt 0.094839 1.825652 0.000000
vt -0.200911 1.884049 0.000000
vt 0.117773 2.376294 0.000000
vt 0.278942 2.110020 0.000000
vt 0.728288 2.432824 0.000000
vt 0.646402 2.144044 0.000000
vt 0.933025 1.928433 0.000000
vt 0.893814 1.451733 0.000000
vt 1.165900 1.344022 0.000000
vt 1.224741 2.059369 0.000000
vt 0.280000 0.184076 0.000000
vt 0.000000 0.275799 0.000000
vt -0.000000 -0.285791 0.000000
vt 0.280000 0.275799 0.000000
vt 0.000000 0.275799 0.000000
vt 0.280000 -0.285791 0.000000
vt -0.000000 -0.285791 0.000000
vt 0.280000 0.184076 0.000000
vt 0.000000 0.184076 0.000000
vt 0.280000 -0.174084 0.000000
vt 0.000000 -0.174084 0.000000
vn 0.691914 -0.721980 0.000000
vn 0.691914 -0.721980 0.000000
vn 0.691914 -0.721980 0.000000
vn 0.691914 -0.721980 0.000000
vn -0.092198 -0.995741 0.000000
vn -0.092198 -0.995741 0.000000
vn -0.092198 -0.995741 0.000000
vn -0.092198 -0.995741 0.000000
vn 0.092198 0.995741 0.000000
vn 0.092198 0.995741 0.000000
vn 0.092198 0.995741 0.000000
vn 0.092198 0.995741 0.000000
vn 0.618538 -0.785755 0.000000
vn 0.618538 -0.785755 0.000000
vn 0.618538 -0.785755 0.000000
vn 0.618538 -0.785755 0.000000
vn -0.618538 0.785755 0.000000
vn -0.618538 0.785755 0.000000
vn -0.618538 0.785755 0.000000
vn -0.618538 0.785755 0.000000
vn 1.000000 0.000000 0.000000
vn 1.000000 0.000000 0.000000
vn 1.000000 0.000000 0.000000
vn 1.000000 0.000000 0.000000
vn -1.000000 -0.000000 0.000000
vn -1.000000 -0.000000 0.000000
vn -1.000000 -0.000000 0.000000
vn -1.000000 -0.000000 0.000000
vn 0.740309 0.672266 0.000000
vn 0.740309 0.672266 0.000000
vn 0.740309 0.672266 0.000000
vn 0.740309 0.672266 0.000000
vn -0.740309 -0.672266 0.000000
vn -0.740309 -0.672266 0.000000
vn -0.740309 -0.672266 0.000000
vn -0.740309 -0.672266 0.000000
vn -0.173518 0.984831 0.000000
vn -0.173518 0.984831 0.000000
vn -0.173518 0.984831 0.000000
vn -0.173518 0.984831 0.000000
vn 0.173518 -0.984831 0.000000
vn 0.173518 -0.984831 0.000000
vn 0.173518 -0.984831 0.000000
vn 0.173518 -0.984831 0.000000
vn -0.691914 0.721980 0.000000
vn -0.691914 0.721980 0.000000
vn -0.691914 0.721980 0.000000
vn -0.691914 0.721980 0.000000
vn -0.663478 -0.748196 0.000000
vn -0.663478 -0.748196 0.000000
vn -0.663478 -0.748196 0.000000
vn -0.663478 -0.748196 0.000000
vn 0.663478 0.748196 0.000000
vn 0.663478 0.748196 0.000000
vn 0.663478 0.748196 0.000000
vn 0.663478 0.748196 0.000000
vn -0.663478 0.748196 0.000000
vn -0.663478 0.748196 0.000000
vn -0.663478 0.748196 0.000000
vn -0.663478 0.748196 0.000000
vn 0.000000 0.000000 1.000000
vn 0.000000 0.000000 1.000000
vn 0.000000 0.000000 1.000000
vn 0.000000 0.000000 1.000000
vn 0.000000 0.000000 1.000000
vn 0.000000 0.000000 1.000000
vn 0.000000 0.000000 1.000000
vn 0.000000 0.000000 1.000000
vn 0.000000 0.000000 1.000000
vn 0.000000 0.000000 1.000000
vn 0.000000 0.000000 1.000000
vn 0.000000 0.000000 1.000000
vn 0.000000 0.000000 1.000000
vn 0.000000 0.000000 1.000000
vn 0.000000 0.000000 1.000000
vn 0.000000 0.000000 1.000000
vn 0.000000 0.000000 1.000000
vn 0.000000 0.000000 1.000000
vn 0.000000 0.000000 1.000000
vn 0.000000 0.000000 1.000000
vn 0.000000 0.000000 1.000000
vn 0.000000 0.000000 1.000000
vn 0.000000 0.000000 1.000000
vn 0.000000 0.000000 1.000000
vn 0.000000 0.000000 1.000000
vn 0.000000 0.000000 1.000000
vn 0.000000 0.000000 1.000000
vn 0.000000 0.000000 1.000000
vn -0.618538 -0.785755 0.000000
vn -0.618538 -0.785755 0.000000
vn -0.618538 -0.785755 0.000000
vn -0.618538 -0.785755 0.000000
vn 0.618538 0.785755 0.000000
vn 0.618538 0.785755 0.000000
vn 0.618538 0.785755 0.000000
vn 0.618538 0.785755 0.000000
vn -1.000000 0.000000 0.000000
vn -1.000000 0.000000 0.000000
vn -1.000000 0.000000 0.000000
vn -1.000000 0.000000 0.000000
vn 1.000000 0.000000 0.000000
vn 1.000000 0.000000 0.000000
vn 1.000000 0.000000 0.000000
vn 1.000000 0.000000 0.000000
vn -0.740309 0.672266 0.000000
vn -0.740309 0.672266 0.000000
vn -0.740309 0.672266 0.000000
vn -0.740309 0.672266 0.000000
vn 0.740309 -0.672266 0.000000
vn 0.740309 -0.672266 0.000000
vn 0.740309 -0.672266 0.000000
vn 0.740309 -0.672266 0.000000
vn 0.173518 0.984831 0.000000
vn 0.173518 0.984831 0.000000
vn 0.173518 0.984831 0.000000
vn 0.173518 0.984831 0.000000
vn -0.173518 -0.984831 0.000000
vn -0.173518 -0.984831 0.000000
vn -0.173518 -0.984831 0.000000
vn -0.173518 -0.984831 0.000000
vn 0.691914 0.721980 0.000000
vn 0.691914 0.721980 0.000000
vn 0.691914 0.721980 0.000000
vn 0.691914 0.721980 0.000000
vn -0.691914 -0.721980 0.000000
vn -0.691914 -0.721980 0.000000
vn -0.691914 -0.721980 0.000000
vn -0.691914 -0.721980 0.000000
vn 0.663478 -0.748196 0.000000
vn 0.663478 -0.748196 0.000000
vn 0.663478 -0.748196 0.000000
vn 0.663478 -0.748196 0.000000
vn -0.000000 0.000000 -1.000000
vn -0.000000 0.000000 -1.000000
vn -0.000000 0.000000 -1.000000
vn -0.000000 0.000000 -1.000000
vn -0.000000 0.000000 -1.000000
vn -0.000000 0.000000 -1.000000
vn -0.000000 0.000000 -1.000000
vn -0.000000 0.000000 -1.000000
vn -0.000000 0.000000 -1.000000
vn -0.000000 0.000000 -1.000000
vn -0.000000 0.000000 -1.000000
vn -0.000000 0.000000 -1.000000
vn -0.000000 0.000000 -1.000000
vn -0.000000 0.000000 -1.000000
vn -0.000000 0.000000 -1.000000
vn -0.000000 0.000000 -1.000000
vn -0.000000 0.000000 -1.000000
vn -0.000000 0.000000 -1.000000
vn -0.000000 0.000000 -1.000000
vn -0.000000 0.000000 -1.000000
vn -0.000000 0.000000 -1.000000
vn -0.000000 0.000000 -1.000000
vn -0.000000 0.000000 -1.000000
vn -0.000000 0.000000 -1.000000
vn -0.000000 0.000000 -1.000000
vn -0.000000 0.000000 -1.000000
vn -0.000000 0.000000 -1.000000
vn -0.000000 0.000000 -1.000000
vn -0.092198 0.995741 0.000000
vn -0.092198 0.995741 0.000000
vn -0.092198 0.995741 0.000000
vn -0.092198 0.995741 0.000000
vn 0.092198 -0.995741 0.000000
vn 0.092198 -0.995741 0.000000
vn 0.092198 -0.995741 0.000000
vn 0.092198 -0.995741 0.000000
usemtl Steel_-_Satin
f 1/1/1 2/2/2 4/3/3
f 4/3/3 2/2/2 3/4/4
f 5/5/5 6/6/6 8/7/7
f 8/7/7 6/6/6 7/8/8
f 10/9/9 11/10/10 9/11/11
f 9/11/11 11/10/10 12/12/12
f 8/13/13 7/14/14 14/15/15
f 14/15/15 7/14/14 13/16/16
f 9/17/17 12/18/18 15/19/19
f 15/19/19 12/18/18 16/20/20
f 14/21/21 13/22/22 18/23/23
f 18/23/23 13/22/22 17/24/24
f 15/25/25 16/26/26 19/27/27
f 19/27/27 16/26/26 20/28/28
f 18/29/29 17/30/30 22/31/31
f 22/31/31 17/30/30 21/32/32
f 19/33/33 20/34/34 23/35/35
f 23/35/35 20/34/34 24/36/36
f 22/37/37 21/38/38 26/39/39
f 26/39/39 21/38/38 25/40/40
f 23/41/41 24/42/42 3/43/43
f 3/43/43 24/42/42 4/44/44
f 26/45/45 25/46/46 28/47/47
f 28/47/47 25/46/46 27/48/48
f 28/49/49 27/50/50 5/51/51
f 5/51/51 27/50/50 6/52/52
f 29/53/53 30/54/54 10/55/55
f 10/55/55 30/54/54 11/56/56
f 30/57/57 29/58/58 32/59/59
f 32/59/59 29/58/58 31/60/60
f 25/61/61 2/62/62 27/63/63
f 27/63/63 2/62/62 44/64/64
f 27/63/63 44/64/64 29/65/65
f 29/65/65 44/64/64 38/66/66
f 29/65/65 38/66/66 31/67/67
f 31/67/67 38/66/66 39/68/68
f 31/67/67 39/68/68 37/69/69
f 37/69/69 39/68/68 36/70/70
f 36/70/70 39/68/68 40/71/71
f 36/70/70 40/71/71 41/72/72
f 2/62/62 25/61/61 3/73/73
f 3/73/73 25/61/61 21/74/74
f 3/73/73 21/74/74 23/75/75
f 23/75/75 21/74/74 19/76/76
f 19/76/76 21/74/74 17/77/77
f 19/76/76 17/77/77 13/78/78
f 19/76/76 13/78/78 15/79/79
f 15/79/79 13/78/78 7/80/80
f 15/79/79 7/80/80 9/81/81
f 9/81/81 7/80/80 10/82/82
f 10/82/82 7/80/80 6/83/83
f 10/82/82 6/83/83 29/65/65
f 29/65/65 6/83/83 27/63/63
f 44/64/64 2/62/62 43/84/84
f 43/84/84 2/62/62 33/85/85
f 43/84/84 33/85/85 42/86/86
f 42/86/86 33/85/85 34/87/87
f 42/86/86 34/87/87 35/88/88
f 42/86/86 35/88/88 41/72/72
f 41/72/72 35/88/88 36/70/70
f 39/89/89 45/90/90 40/91/91
f 40/91/91 45/90/90 46/92/92
f 48/93/93 37/94/94 47/95/95
f 47/95/95 37/94/94 36/96/96
f 40/97/97 46/98/98 41/99/99
f 41/99/99 46/98/98 49/100/100
f 47/101/101 36/102/102 50/103/103
f 50/103/103 36/102/102 35/104/104
f 41/105/105 49/106/106 42/107/107
f 42/107/107 49/106/106 51/108/108
f 50/109/109 35/110/110 52/111/111
f 52/111/111 35/110/110 34/112/112
f 42/113/113 51/114/114 43/115/115
f 43/115/115 51/114/114 53/116/116
f 52/117/117 34/118/118 54/119/119
f 54/119/119 34/118/118 33/120/120
f 43/121/121 53/122/122 44/123/123
f 44/123/123 53/122/122 55/124/124
f 2/125/125 1/126/126 33/127/127
f 33/127/127 1/126/126 54/128/128
f 44/129/129 55/130/130 38/131/131
f 38/131/131 55/130/130 56/132/132
f 5/133/133 30/134/134 28/135/135
f 28/135/135 30/134/134 55/136/136
f 28/135/135 55/136/136 1/137/137
f 1/137/137 55/136/136 53/138/138
f 1/137/137 53/138/138 54/139/139
f 54/139/139 53/138/138 51/140/140
f 54/139/139 51/140/140 52/141/141
f 52/141/141 51/140/140 50/142/142
f 50/142/142 51/140/140 49/143/143
f 50/142/142 49/143/143 47/144/144
f 47/144/144 49/143/143 46/145/145
f 47/144/144 46/145/145 45/146/146
f 30/134/134 5/133/133 11/147/147
f 11/147/147 5/133/133 8/148/148
f 11/147/147 8/148/148 12/149/149
f 12/149/149 8/148/148 16/150/150
f 16/150/150 8/148/148 14/151/151
f 16/150/150 14/151/151 20/152/152
f 20/152/152 14/151/151 18/153/153
f 20/152/152 18/153/153 22/154/154
f 26/155/155 4/156/156 22/154/154
f 22/154/154 4/156/156 24/157/157
f 22/154/154 24/157/157 20/152/152
f 4/156/156 26/155/155 1/137/137
f 1/137/137 26/155/155 28/135/135
f 55/136/136 30/134/134 56/158/158
f 56/158/158 30/134/134 32/159/159
f 56/158/158 32/159/159 45/146/146
f 45/146/146 32/159/159 48/160/160
f 45/146/146 48/160/160 47/144/144
f 32/161/161 31/162/162 48/163/163
f 48/163/163 31/162/162 37/164/164
f 38/165/165 56/166/166 39/167/167
f 39/167/167 56/166/166 45/168/168
# 56 vertices
# 168 texture params
# 168 normals
# 116 facets

# 1 groups
