# Blender 4.5.2 LTS
# www.blender.org
o 1._Mini-MC.001
v 2.179088 5.427134 -1.378953
v 2.181127 5.500445 -1.205257
v 3.335237 5.432544 -1.394809
v 3.337276 5.505856 -1.221113
v 2.290781 3.942727 -0.753758
v 2.197078 4.023429 -0.786719
v 2.230049 3.972521 -0.765620
v 2.197832 4.101380 -0.614966
v 2.292096 4.016769 -0.580363
v 2.231381 4.045102 -0.591608
v 3.346831 4.030632 -0.803256
v 3.255333 3.947976 -0.767297
v 3.315457 3.976881 -0.780202
v 3.256667 4.020548 -0.593281
v 3.349685 4.104553 -0.629826
v 3.316774 4.050911 -0.606800
vn 0.5789 0.7587 0.2988
vn 0.5656 0.3091 -0.7645
vn -0.5891 0.3034 -0.7490
vn -0.5778 0.7533 0.3142
vn -0.7373 -0.4371 -0.5151
vn -0.7216 0.0786 0.6878
vn -0.5212 -0.2562 0.8141
vn -0.1673 -0.4185 0.8927
vn 0.1950 -0.4194 0.8866
vn 0.5409 -0.2446 0.8047
vn 0.7415 0.0803 0.6662
vn -0.1808 -0.9311 -0.3168
vn 0.1814 -0.9284 -0.3244
vn 0.7246 -0.4290 -0.5394
vn 0.5310 -0.7529 -0.3889
vn -0.5307 -0.7561 -0.3829
vt 0.151692 0.337461
vt 0.023210 0.337461
vt 0.023210 0.021355
vt 0.151692 0.021355
vt 0.018497 0.514836
vt 0.018497 0.463660
vt 0.158129 0.463660
vt 0.158129 0.514836
vt 0.191532 0.232363
vt 0.940378 0.232708
vt 0.969569 0.240886
vt 0.985430 0.255218
vt 0.986280 0.492528
vt 0.970439 0.507096
vt 0.942490 0.515223
vt 0.192477 0.516970
vt 0.018497 0.460226
vt 0.018497 0.412484
vt 0.158129 0.412484
vt 0.158129 0.460497
vt 0.158129 0.399690
vt 0.018497 0.399690
vt 0.018497 0.361308
vt 0.158129 0.361308
vt 0.912905 0.030229
vt 0.964556 0.032487
vt 0.964556 0.203763
vt 0.912905 0.212897
vt 0.887076 0.222030
vt 0.189778 0.222030
vt 0.189778 0.021094
vt 0.887076 0.021094
s 1
f 4/1/1 3/2/2 1/3/3 2/4/4
f 1/5/3 6/6/5 8/7/6 2/8/4
f 2/9/4 8/10/6 10/11/7 9/12/8 14/13/9 16/14/10 15/15/11 4/16/1
f 5/17/12 12/18/13 14/19/9 9/20/8
f 15/21/11 11/22/14 3/23/2 4/24/1
f 13/18/15 16/19/10 14/19/9 12/18/13
f 15/21/11 16/19/10 13/18/15 11/22/14
f 10/7/7 8/7/6 6/6/5 7/6/16
f 5/17/12 9/20/8 10/7/7 7/6/16
f 13/25/15 12/26/13 5/27/12 7/28/16 6/29/5 1/30/3 3/31/2 11/32/14
o bman_original
v -1.521496 3.664726 -0.111906
v -2.085961 3.350182 -0.825900
v -1.521496 3.350182 -0.825900
v -2.085961 3.664726 -0.111906
v -2.085961 3.860204 -1.050586
v -2.085961 4.174748 -0.336592
v -1.198179 3.863655 -1.052106
v -1.198179 4.178199 -0.338113
v -0.975489 3.525820 -0.903276
v -0.975489 3.840364 -0.189282
v -0.975489 2.788395 -0.578409
v -0.975489 3.102940 0.135585
v -1.198179 2.450743 -0.429659
v -1.198179 2.765287 0.284335
v -2.899315 2.450743 -0.429659
v -2.899315 2.765287 0.284335
v -2.899315 4.652844 -1.399778
v -2.899315 4.967389 -0.685784
v -2.357079 4.652844 -1.399778
v -2.357079 4.967389 -0.685784
v -2.357079 2.981470 -0.663467
v -2.357079 3.296015 0.050527
v -1.521496 2.981470 -0.663467
v -1.521496 3.296015 0.050527
v 1.401458 4.968660 -0.686344
v 1.401458 4.654116 -1.400338
v -0.783563 4.654116 -1.400338
v -0.783563 4.968660 -0.686344
v -0.783563 2.450743 -0.429659
v -0.783563 2.765287 0.284335
v -0.296701 2.450743 -0.429659
v -0.296701 2.765287 0.284335
v -0.296701 4.104861 -1.158368
v -0.296701 4.419405 -0.444374
v 0.165350 4.104861 -1.158368
v 0.165350 4.419405 -0.444374
v 0.165350 2.450743 -0.429659
v 0.165350 2.765287 0.284335
v 0.650227 2.450743 -0.429659
v 0.650227 2.765287 0.284335
v 0.650227 4.104861 -1.158368
v 0.650227 4.419405 -0.444374
v 1.112278 4.104861 -1.158368
v 1.112278 4.419405 -0.444374
v 1.112278 2.046067 -0.251382
v 1.112278 2.372600 0.457331
v 1.598345 2.046067 -0.251382
v 1.598345 2.372600 0.457331
v 1.598345 4.316099 -1.251427
v 1.598345 4.630643 -0.537433
vn -0.2181 -0.0474 0.9748
vn -0.4083 -0.9118 -0.0444
vn -0.4363 -0.5515 -0.7110
vn -0.8165 -0.2090 0.5382
vn -0.6672 0.0363 -0.7440
vn -0.3357 0.8781 0.3410
vn 0.1763 0.1439 -0.9738
vn 0.3555 0.7236 0.5916
vn 0.8835 0.1768 -0.4338
vn 0.9304 0.2853 0.2303
vn 0.8102 -0.3629 -0.4603
vn 0.7694 -0.0396 0.6375
vn 0.3023 -0.6847 -0.6632
vn 0.1512 -0.0508 0.9872
vn -0.3334 -0.8788 -0.3414
vn -0.6666 -0.0363 0.7445
vn -0.6667 0.0360 -0.7444
vn -0.3334 0.8788 0.3413
vn 0.4083 0.5826 -0.7028
vn 0.8165 0.5382 0.2090
vn 0.4363 -0.1524 -0.8868
vn 0.2181 0.7512 0.6230
vn -0.3333 0.3413 -0.8789
vn -0.6667 0.5738 0.4757
vn 0.1346 0.7146 0.6864
vn 0.2694 -0.0983 -0.9580
vn -0.2672 0.1659 -0.9493
vn -0.5345 0.5678 0.6261
vn -0.8165 -0.5382 -0.2090
vn -0.4082 -0.5826 0.7028
vn 0.3334 -0.8789 -0.3413
vn 0.6667 -0.0364 0.7445
vn 0.5345 -0.5677 -0.6261
vn 0.2673 -0.1659 0.9492
vn -0.2181 -0.7512 -0.6230
vn -0.4363 0.1524 0.8868
vn -0.4083 -0.5826 0.7027
vn 0.3334 -0.8788 -0.3413
vn 0.2673 -0.1658 0.9492
vn -0.2671 -0.8124 -0.5183
vn -0.5345 0.0787 0.8415
vn -0.8188 -0.5368 -0.2033
vn -0.4059 -0.5739 0.7113
vn 0.2691 -0.8147 -0.5137
vn 0.5326 0.0803 0.8426
vn 0.9338 0.0089 -0.3578
vn 0.8957 0.4094 0.1735
vt 0.486953 0.697588
vt 0.499361 0.808005
vt 0.486953 0.808005
vt 0.499361 0.697588
vt 0.555258 0.811188
vt 0.665675 0.732315
vt 0.665675 0.811188
vt 0.555258 0.732315
vt 0.686872 0.786192
vt 0.690014 0.660551
vt 0.690014 0.786192
vt 0.686872 0.660551
vt 0.665463 0.728907
vt 0.658511 0.618490
vt 0.665463 0.618490
vt 0.658511 0.728907
vt 0.562501 0.698740
vt 0.277720 0.588323
vt 0.562501 0.588323
vt 0.277720 0.698740
vt 0.152196 0.588323
vt 0.152196 0.698740
vt 0.135802 0.936568
vt 0.158244 0.695819
vt 0.158244 0.936568
vt 0.135802 0.695819
vt 0.131564 0.802691
vt 0.987011 0.913108
vt 0.131564 0.913108
vt 0.987011 0.802691
vt 0.986501 0.707595
vt 0.990497 0.818012
vt 0.986501 0.818012
vt 0.990497 0.707595
vt 0.988554 0.930517
vt 0.357927 0.820100
vt 0.988554 0.820100
vt 0.357927 0.930517
vt 0.346348 0.804445
vt 0.359047 0.686191
vt 0.359047 0.804445
vt 0.346348 0.686191
vt 0.352770 0.662209
vt 0.484409 0.772626
vt 0.352770 0.772626
vt 0.484409 0.662209
vt 0.352784 0.826524
vt 0.990045 0.826524
vt 0.990045 0.903262
vt 0.150428 0.903262
vt 0.150428 0.662513
vt 0.352784 0.708270
vt 0.689143 0.662513
vt 0.687827 0.788154
vt 0.493366 0.708270
vt 0.279168 0.630998
vt 0.560333 0.630998
vt 0.493366 0.788154
vt 0.353533 0.827224
vt 0.990794 0.903963
vt 0.990794 0.827224
vt 0.151177 0.903963
vt 0.151177 0.663214
vt 0.353533 0.708971
vt 0.689892 0.663214
vt 0.494115 0.708971
vt 0.688576 0.788855
vt 0.279917 0.631698
vt 0.561082 0.631698
vt 0.494115 0.788855
vt 0.985756 0.613979
vt 0.991506 0.613979
vt 0.991506 0.923208
vt 0.985756 0.923208
vt 0.983930 0.802338
vt 0.983930 0.912755
vt 0.127988 0.912755
vt 0.127988 0.802338
vt 0.155834 0.774607
vt 0.155834 0.885023
vt 0.141830 0.885023
vt 0.141830 0.774607
vt 0.154782 0.763026
vt 0.154782 0.652609
vt 0.784276 0.652609
vt 0.784276 0.763026
vt 0.789681 0.668706
vt 0.789681 0.779122
vt 0.780514 0.779122
vt 0.780514 0.668706
vt 0.784276 0.653806
vt 0.784276 0.764223
vt 0.153577 0.764223
vt 0.153577 0.653806
vt 0.155777 0.775317
vt 0.155777 0.885733
vt 0.141830 0.885733
vt 0.141830 0.775317
vt 0.153643 0.715914
vt 0.153643 0.605497
vt 0.781478 0.605498
vt 0.781478 0.715914
vt 0.789681 0.889539
vt 0.780514 0.889539
vt 0.789241 0.604203
vt 0.789241 0.714620
vt 0.003671 0.714620
vt 0.008245 0.604203
vt 0.018078 0.706751
vt 0.018078 0.817172
vt 0.011521 0.817172
vt 0.011521 0.706751
vt 0.862087 0.566439
vt 0.866632 0.676856
vt 0.006184 0.676856
vt 0.006184 0.566439
vt 0.968495 0.751883
vt 0.980157 0.751883
vt 0.980157 0.805779
vt 0.968495 0.805779
vt 0.994855 0.631505
vt 0.994855 0.940735
vt 0.785435 0.871833
vt 0.785435 0.806442
vt 0.785435 0.737821
vt 0.785435 0.672431
vt 0.005030 0.603642
vt 0.865976 0.603642
vt 0.154753 0.806442
vt 0.154753 0.737821
vt 0.154753 0.940735
vt 0.154753 0.871833
vt 0.005030 0.672431
vt 0.995604 0.632206
vt 0.786184 0.872534
vt 0.995604 0.941435
vt 0.786184 0.807143
vt 0.786184 0.738522
vt 0.786184 0.673132
vt 0.001208 0.604342
vt 0.866725 0.604342
vt 0.155502 0.738522
vt 0.155502 0.807143
vt 0.155502 0.872534
vt 0.155502 0.941435
vt 0.001208 0.673132
s 1
f 17/33/17 18/34/18 19/35/19
f 17/33/17 20/36/20 18/34/18
f 20/37/20 21/38/21 18/39/18
f 20/37/20 22/40/22 21/38/21
f 22/41/22 23/42/23 21/43/21
f 22/41/22 24/44/24 23/42/23
f 24/45/24 25/46/25 23/47/23
f 24/45/24 26/48/26 25/46/25
f 26/49/26 27/50/27 25/51/25
f 26/49/26 28/52/28 27/50/27
f 28/52/28 29/53/29 27/50/27
f 28/52/28 30/54/30 29/53/29
f 30/55/30 31/56/31 29/57/29
f 30/55/30 32/58/32 31/56/31
f 32/59/32 33/60/33 31/61/31
f 32/59/32 34/62/34 33/60/33
f 34/63/34 35/64/35 33/65/33
f 34/63/34 36/66/36 35/64/35
f 36/67/36 37/68/37 35/69/35
f 36/67/36 38/70/38 37/68/37
f 38/71/38 39/72/39 37/73/37
f 38/71/38 40/74/40 39/72/39
f 40/75/40 19/76/19 39/77/39
f 40/75/40 17/78/17 19/76/19
f 38/79/38 36/80/36 34/81/34
f 38/79/38 34/81/34 32/82/32
f 38/79/38 32/82/32 30/83/30
f 38/79/38 30/83/30 40/84/40
f 24/85/24 22/86/22 17/87/17
f 24/85/24 17/87/17 30/83/30
f 24/85/24 30/83/30 28/88/28
f 24/85/24 28/88/28 26/89/26
f 40/84/40 30/83/30 17/87/17
f 17/87/17 22/86/22 20/90/20
f 37/91/37 33/92/33 35/93/35
f 37/91/37 31/94/31 33/92/33
f 37/91/37 29/95/29 31/94/31
f 37/91/37 39/96/39 29/95/29
f 23/97/23 19/98/19 21/99/21
f 23/97/23 29/95/29 19/98/19
f 23/97/23 27/100/27 29/95/29
f 23/97/23 25/101/25 27/100/27
f 39/96/39 19/98/19 29/95/29
f 19/98/19 18/102/18 21/99/21
f 41/103/41 42/104/42 43/105/43
f 41/103/41 43/105/43 44/106/44
f 44/107/44 43/108/43 45/109/45
f 44/107/44 45/109/45 46/110/46
f 46/111/46 45/112/45 47/113/47
f 46/111/46 47/113/47 48/114/48
f 48/115/48 47/116/47 49/117/49
f 48/115/48 49/117/49 50/118/50
f 50/119/50 49/120/49 51/121/51
f 50/119/50 51/121/51 52/122/52
f 52/123/52 51/124/51 53/125/45
f 52/123/52 53/125/45 54/126/53
f 54/127/53 53/128/45 55/129/54
f 54/127/53 55/129/54 56/130/48
f 56/131/48 55/132/54 57/133/49
f 56/131/48 57/133/49 58/134/55
f 58/120/55 57/135/49 59/136/56
f 58/120/55 59/136/56 60/121/57
f 60/137/57 59/138/56 61/139/58
f 60/137/57 61/139/58 62/140/59
f 62/141/59 61/142/58 63/143/60
f 62/141/59 63/143/60 64/144/61
f 64/145/61 63/146/60 65/147/62
f 64/145/61 65/147/62 66/148/63
f 66/149/63 65/150/62 42/151/42
f 66/149/63 42/151/42 41/152/41
f 41/153/41 44/154/44 50/155/50
f 41/153/41 50/155/50 52/156/52
f 41/153/41 52/156/52 58/157/55
f 41/153/41 58/157/55 60/158/57
f 41/153/41 60/158/57 64/159/61
f 41/153/41 64/159/61 66/160/63
f 52/156/52 54/161/53 56/162/48
f 52/156/52 56/162/48 58/157/55
f 44/154/44 46/163/46 48/164/48
f 44/154/44 48/164/48 50/155/50
f 64/159/61 60/158/57 62/165/59
f 42/166/42 49/167/49 43/168/43
f 42/166/42 51/169/51 49/167/49
f 42/166/42 57/170/49 51/169/51
f 42/166/42 59/171/56 57/170/49
f 42/166/42 63/172/60 59/171/56
f 42/166/42 65/173/62 63/172/60
f 51/169/51 55/174/54 53/175/45
f 51/169/51 57/170/49 55/174/54
f 43/168/43 47/176/47 45/177/45
f 43/168/43 49/167/49 47/176/47
f 63/172/60 61/178/58 59/171/56
