# Blender 4.4.3
# www.blender.org
o 1._Mini-MC
v 2.179088 5.427134 -1.378953
v 2.181127 5.500445 -1.205257
v 3.335237 5.432544 -1.394809
v 3.337276 5.505856 -1.221113
v 2.290781 3.942727 -0.753758
v 2.197078 4.023429 -0.786719
v 2.230049 3.972521 -0.765620
v 2.197832 4.101380 -0.614966
v 2.292096 4.016769 -0.580363
v 2.231381 4.045102 -0.591608
v 3.346831 4.030632 -0.803256
v 3.255333 3.947976 -0.767297
v 3.315457 3.976881 -0.780202
v 3.256667 4.020548 -0.593281
v 3.349685 4.104553 -0.629826
v 3.316774 4.050911 -0.606800
vn 0.5789 0.7587 0.2988
vn 0.5656 0.3091 -0.7645
vn -0.5891 0.3034 -0.7490
vn -0.5778 0.7533 0.3142
vn -0.7373 -0.4371 -0.5151
vn -0.7216 0.0786 0.6878
vn -0.5212 -0.2562 0.8141
vn -0.1673 -0.4185 0.8927
vn 0.1950 -0.4194 0.8866
vn 0.5409 -0.2446 0.8047
vn 0.7415 0.0803 0.6662
vn -0.1808 -0.9311 -0.3168
vn 0.1814 -0.9284 -0.3244
vn 0.7246 -0.4290 -0.5394
vn 0.5310 -0.7529 -0.3889
vn -0.5307 -0.7561 -0.3829
vt 0.153399 0.326489
vt 0.027368 0.326489
vt 0.027368 0.016412
vt 0.153399 0.016412
vt 0.017861 0.507805
vt 0.017861 0.457605
vt 0.154830 0.457605
vt 0.154830 0.507805
vt 0.200780 0.229743
vt 0.935344 0.230082
vt 0.963978 0.238104
vt 0.979536 0.252162
vt 0.980370 0.484946
vt 0.964831 0.499237
vt 0.937415 0.507208
vt 0.201707 0.508922
vt 0.017861 0.454236
vt 0.017861 0.407405
vt 0.154830 0.407405
vt 0.154830 0.454503
vt 0.154830 0.394856
vt 0.017861 0.394856
vt 0.017861 0.357205
vt 0.154830 0.357205
vt 0.908395 0.025116
vt 0.959060 0.027331
vt 0.959060 0.195341
vt 0.908395 0.204301
vt 0.883059 0.213260
vt 0.199059 0.213260
vt 0.199059 0.016156
vt 0.883059 0.016156
s 1
f 4/1/1 3/2/2 1/3/3 2/4/4
f 1/5/3 6/6/5 8/7/6 2/8/4
f 2/9/4 8/10/6 10/11/7 9/12/8 14/13/9 16/14/10 15/15/11 4/16/1
f 5/17/12 12/18/13 14/19/9 9/20/8
f 15/21/11 11/22/14 3/23/2 4/24/1
f 13/18/15 16/19/10 14/19/9 12/18/13
f 15/21/11 16/19/10 13/18/15 11/22/14
f 10/7/7 8/7/6 6/6/5 7/6/16
f 5/17/12 9/20/8 10/7/7 7/6/16
f 13/25/15 12/26/13 5/27/12 7/28/16 6/29/5 1/30/3 3/31/2 11/32/14
o hurt_robot_head
v 0.857558 4.811088 0.710126
v 0.857558 3.230127 -1.940389
v -0.317769 4.454601 -2.396055
v 0.183558 5.513271 0.448821
v 0.857558 2.668395 1.507491
v 0.857558 1.609725 -1.337386
v 0.857558 3.472188 -0.249105
v 0.857558 3.756675 -0.354972
v 0.857558 3.650809 -0.639460
v 0.857558 3.366321 -0.533593
v -1.752950 3.692550 1.126370
v 0.432592 3.692550 1.126370
v 0.432592 2.952883 1.401624
v -1.752950 2.952883 1.401624
v -1.803160 4.447230 0.845529
v -1.346774 4.602911 0.787595
v -1.803160 4.758592 0.729662
v -1.751250 4.892257 0.679920
v -0.903017 4.602911 0.787595
v -1.751250 4.313565 0.895270
v 0.430892 4.892257 0.679920
v 0.482801 4.758592 0.729662
v 0.026415 4.602911 0.787595
v 0.482801 4.447230 0.845529
v 0.430892 4.313565 0.895270
v -0.417341 4.602911 0.787595
v -2.177916 5.513271 0.448821
v -2.177916 2.668395 1.507491
v -1.169577 5.626816 -0.986135
v -1.169577 5.478602 -1.384417
v -0.927852 5.806178 -1.506318
v -0.927852 5.954391 -1.108036
v -1.083246 5.690873 -1.171914
v -1.014182 5.784467 -1.206743
v -1.014182 5.742120 -1.320538
v -1.083246 5.648527 -1.285709
v -1.519099 5.853363 -1.070440
v -1.277374 6.180938 -1.192341
v -1.277374 6.032724 -1.590624
v -1.519099 5.705150 -1.468723
v -0.599470 5.515664 -1.106714
v -0.720889 5.456006 -1.084513
v -0.720889 5.005110 -0.916720
v -0.599470 5.005110 -0.916720
v -0.720889 5.413659 -1.198308
v -0.720889 4.962763 -1.030515
v -0.599470 4.962763 -1.030515
v -0.599470 5.473317 -1.220508
v 1.282524 4.147030 -0.176351
v 1.282524 3.829429 -1.029814
v 1.282524 2.975966 -0.712213
v 1.282524 3.293567 0.141250
v 1.282524 3.756675 -0.354972
v 1.282524 3.472188 -0.249105
v 1.282524 3.366321 -0.533593
v 1.282524 3.650809 -0.639460
v 1.586072 3.293567 0.141250
v 1.586072 4.147030 -0.176351
v 1.586072 2.975966 -0.712213
v 1.586072 3.829429 -1.029814
v -2.602882 3.293567 0.141250
v -2.602882 2.975966 -0.712213
v -2.602882 3.829429 -1.029814
v -2.602882 4.147030 -0.176351
v -2.602882 3.472188 -0.249105
v -2.602882 3.756675 -0.354972
v -2.602882 3.650809 -0.639460
v -2.602882 3.366321 -0.533593
v -2.906430 4.147030 -0.176351
v -2.906430 3.293567 0.141250
v -2.906430 2.975966 -0.712213
v -2.906430 3.829429 -1.029814
v -2.177916 3.472188 -0.249105
v -2.177916 3.756675 -0.354972
v -2.177916 3.650809 -0.639460
v -2.177916 3.366321 -0.533593
v -0.793847 3.578755 1.168716
v -0.793847 3.066678 1.359277
v -0.793847 3.003158 1.188585
v -0.793847 3.515235 0.998024
v -0.568501 3.066678 1.359277
v -0.522757 3.578755 1.168716
v -0.522757 3.515235 0.998024
v -0.568501 3.003158 1.188585
v -1.258917 3.578755 1.168716
v -1.189902 3.066678 1.359277
v -1.189902 3.003158 1.188585
v -1.258917 3.515235 0.998024
v -0.975975 3.066678 1.359277
v -0.975975 3.578755 1.168716
v -0.975975 3.515235 0.998024
v -0.975975 3.003158 1.188585
v -0.339992 3.578755 1.168716
v -0.385735 3.066678 1.359277
v -0.385735 3.003158 1.188585
v -0.339992 3.515235 0.998024
v -0.081315 3.066678 1.359277
v -0.109751 3.578755 1.168716
v -0.109751 3.515235 0.998024
v -0.081315 3.003158 1.188585
v -1.373477 3.066678 1.359277
v -1.442492 3.578755 1.168716
v -1.442492 3.515235 0.998024
v -1.373477 3.003158 1.188585
v -1.631531 3.515235 0.998024
v -1.631531 3.003158 1.188585
v 0.072624 3.578755 1.168716
v 0.101060 3.066678 1.359277
v 0.101060 3.003158 1.188585
v 0.072624 3.515235 0.998024
v 0.311173 3.003158 1.188585
v 0.311173 3.515235 0.998024
v -1.631531 3.130198 1.529969
v 0.311173 3.130198 1.529969
v 0.311173 3.642276 1.339409
v -1.631531 3.642276 1.339409
v -1.752950 3.756071 1.297062
v 0.432592 3.756071 1.297062
v 0.432592 3.016403 1.572316
v -1.752950 3.016403 1.572316
v -1.803160 4.404883 0.731734
v -1.346774 4.560564 0.673800
v -1.751250 4.271218 0.781475
v -0.903017 4.560564 0.673800
v -1.751250 4.849910 0.566125
v -1.803160 4.716245 0.615866
v 0.430892 4.849910 0.566125
v 0.482801 4.716245 0.615866
v -0.417341 4.560564 0.673800
v 0.430892 4.271218 0.781475
v 0.482801 4.404883 0.731734
v 0.026415 4.560564 0.673800
v -2.177916 4.454601 -2.396055
v -2.177916 1.609725 -1.337386
vn 0.7379 0.5796 -0.3457
vn 1.0000 -0.0000 -0.0000
vn -0.0000 0.3488 0.9372
vn 0.8225 -0.5331 0.1984
vn 0.5688 0.7708 -0.2868
vn -0.8225 0.5331 -0.1984
vn -0.5688 -0.7708 0.2868
vn -0.0000 -0.3488 -0.9372
vn -1.0000 -0.0000 -0.0000
vn -0.0000 0.9372 -0.3488
vn -0.0000 -0.9372 0.3488
vn -0.9965 0.0782 -0.0291
vn 0.9921 0.1174 -0.0437
vn 0.9965 -0.0782 0.0291
vn -0.9986 -0.0487 0.0181
vn -0.9921 -0.1174 0.0437
vn 0.9986 0.0487 -0.0181
vn 0.3420 -0.8807 0.3277
vn 0.9397 0.3205 -0.1193
vn -0.3420 0.8807 -0.3277
vn -0.3420 -0.8807 0.3277
vn 0.9397 -0.3205 0.1193
vn 0.3420 0.8807 -0.3277
vn -0.9397 -0.3205 0.1193
vn -0.9397 0.3205 -0.1193
vt 0.977544 0.941966
vt 0.785044 0.941966
vt 0.932161 0.606968
vt 0.821771 0.606968
vt 0.035297 0.665565
vt 0.102853 0.848441
vt 0.096341 0.998066
vt 0.136103 0.848441
vt 0.285728 0.998066
vt 0.285728 0.665565
vt 0.136103 0.815190
vt 0.102853 0.815190
vt 0.230641 0.949747
vt 0.124241 0.803447
vt 0.230641 0.710346
vt 0.158059 0.710533
vt 0.142437 0.704846
vt 0.317092 0.949747
vt 0.350342 0.996297
vt 0.099910 0.996297
vt 0.158059 0.949561
vt 0.142437 0.955247
vt 0.106046 0.955247
vt 0.124241 0.905255
vt 0.317092 0.710346
vt 0.350342 0.663796
vt 0.124241 0.754838
vt 0.106045 0.704846
vt 0.017841 0.663796
vt 0.090423 0.710533
vt 0.017841 0.922468
vt 0.124241 0.856647
vt 0.090423 0.949561
vt 0.759242 0.607430
vt 0.742617 0.590805
vt 0.759242 0.560879
vt 0.742617 0.577504
vt 0.729317 0.577504
vt 0.712692 0.607430
vt 0.729317 0.590805
vt 0.712692 0.560879
vt 0.759368 0.560316
vt 0.759368 0.606866
vt 0.712818 0.560316
vt 0.712818 0.606866
vt 0.759642 0.607381
vt 0.713092 0.607381
vt 0.759642 0.560831
vt 0.713092 0.560831
vt 0.759358 0.606953
vt 0.712808 0.606953
vt 0.759358 0.560403
vt 0.712808 0.560403
vt 0.759099 0.606927
vt 0.712549 0.606927
vt 0.759099 0.560377
vt 0.712549 0.560377
vt 0.760227 0.560208
vt 0.760227 0.606758
vt 0.713677 0.560208
vt 0.713677 0.606758
vt 0.388156 0.649952
vt 0.361675 0.596478
vt 0.376688 0.596824
vt 0.388441 0.548165
vt 0.400075 0.554610
vt 0.400075 0.644050
vt 0.235194 0.569429
vt 0.235194 0.617689
vt 0.221894 0.569429
vt 0.221894 0.617689
vt 0.239158 0.567080
vt 0.239158 0.619779
vt 0.225858 0.567080
vt 0.225858 0.619779
vt 0.257342 0.567065
vt 0.257342 0.626738
vt 0.244042 0.567065
vt 0.244042 0.626738
vt 0.256742 0.561367
vt 0.256742 0.616600
vt 0.243442 0.561367
vt 0.243442 0.616600
vt 0.305266 0.555923
vt 0.316900 0.549477
vt 0.328654 0.598137
vt 0.343667 0.597791
vt 0.317185 0.651265
vt 0.305266 0.645363
vt 0.161747 0.552908
vt 0.128496 0.586158
vt 0.061996 0.552908
vt 0.095246 0.586158
vt 0.095246 0.619408
vt 0.161747 0.652658
vt 0.128496 0.619408
vt 0.061996 0.652658
vt 0.144901 0.550834
vt 0.144901 0.650584
vt 0.111651 0.550834
vt 0.111651 0.650584
vt 0.261497 0.552908
vt 0.261497 0.652658
vt 0.277901 0.650584
vt 0.244651 0.650584
vt 0.277901 0.550834
vt 0.244651 0.550834
vt 0.311151 0.650584
vt 0.311151 0.550834
vt 0.178151 0.650584
vt 0.178151 0.550834
vt 0.361247 0.552908
vt 0.327997 0.586158
vt 0.294747 0.586158
vt 0.294747 0.619408
vt 0.361247 0.652658
vt 0.327997 0.619408
vt 0.211401 0.650584
vt 0.211401 0.550834
vt 0.344401 0.650584
vt 0.344401 0.550834
vt 0.377652 0.650584
vt 0.377652 0.550834
vt 0.460997 0.552908
vt 0.460997 0.652658
vt 0.361247 0.552908
vt 0.361247 0.652658
vt 0.244651 0.550834
vt 0.507926 0.708371
vt 0.474675 0.708371
vt 0.507926 0.661821
vt 0.474675 0.661821
vt 0.507926 0.754922
vt 0.474675 0.754922
vt 0.507926 0.801472
vt 0.474675 0.801472
vt 0.507926 0.848022
vt 0.474675 0.848022
vt 0.507926 0.801472
vt 0.474675 0.801472
vt 0.474675 0.848022
vt 0.507926 0.848022
vt 0.474675 0.894572
vt 0.507926 0.894572
vt 0.507926 0.941122
vt 0.474675 0.941122
vt 0.595037 0.801426
vt 0.595037 0.847976
vt 0.561786 0.801426
vt 0.561786 0.847976
vt 0.605706 0.752406
vt 0.572456 0.752406
vt 0.605706 0.705856
vt 0.572456 0.705856
vt 0.633451 0.612047
vt 0.633451 0.552197
vt 0.653401 0.612047
vt 0.653401 0.552197
vt 0.611248 0.611672
vt 0.611248 0.551612
vt 0.631198 0.611672
vt 0.631198 0.551612
vt 0.751785 0.611664
vt 0.722090 0.611664
vt 0.746774 0.551814
vt 0.722090 0.551814
vt 0.656805 0.611563
vt 0.656805 0.551237
vt 0.676754 0.611563
vt 0.676754 0.551237
vt 0.655693 0.611050
vt 0.655693 0.551200
vt 0.675643 0.611050
vt 0.675643 0.551200
vt 0.753217 0.551630
vt 0.745657 0.611480
vt 0.722224 0.551630
vt 0.722224 0.611480
vt 0.587866 0.612066
vt 0.587866 0.552006
vt 0.607816 0.612066
vt 0.607816 0.552006
vt 0.633929 0.611144
vt 0.633929 0.551212
vt 0.653879 0.611144
vt 0.653879 0.551212
vt 0.723746 0.551550
vt 0.748966 0.551550
vt 0.720631 0.611401
vt 0.753976 0.611401
vt 0.588291 0.612123
vt 0.588291 0.551797
vt 0.608241 0.612123
vt 0.608241 0.551797
vt 0.751138 0.551814
vt 0.743578 0.611664
vt 0.722871 0.551814
vt 0.722871 0.611664
vt 0.610535 0.612429
vt 0.610535 0.552498
vt 0.630485 0.612429
vt 0.630485 0.552498
vt 0.724684 0.611357
vt 0.724684 0.551506
vt 0.747699 0.611357
vt 0.750814 0.551506
vt 0.631955 0.551634
vt 0.631955 0.611566
vt 0.612005 0.552673
vt 0.612005 0.612604
vt 0.590054 0.613130
vt 0.590054 0.552804
vt 0.610004 0.610610
vt 0.610004 0.550284
vt 0.634415 0.551114
vt 0.654365 0.551114
vt 0.634415 0.610964
vt 0.654365 0.610964
vt 0.677055 0.610799
vt 0.657105 0.609129
vt 0.677055 0.550740
vt 0.657105 0.549070
vt 0.350914 0.613967
vt 0.379181 0.613967
vt 0.350914 0.633917
vt 0.379181 0.653867
vt 0.330806 0.633917
vt 0.307373 0.633917
vt 0.330806 0.613967
vt 0.307373 0.613967
vt 0.166380 0.653867
vt 0.262738 0.633917
vt 0.287422 0.633917
vt 0.166380 0.613967
vt 0.189396 0.633917
vt 0.209373 0.633917
vt 0.242719 0.633917
vt 0.242719 0.613967
vt 0.209373 0.613967
vt 0.189396 0.613967
vt 0.262738 0.613967
vt 0.287422 0.613967
vt 0.448353 0.570169
vt 0.448353 0.630019
vt 0.408453 0.570169
vt 0.408453 0.630019
vt 0.349464 0.550782
vt 0.375594 0.550782
vt 0.349464 0.570732
vt 0.375594 0.590682
vt 0.329487 0.570732
vt 0.304267 0.570732
vt 0.329487 0.550782
vt 0.304267 0.550782
vt 0.162794 0.590682
vt 0.254553 0.570732
vt 0.284247 0.570732
vt 0.162794 0.550782
vt 0.183501 0.570732
vt 0.203610 0.570732
vt 0.234602 0.570732
vt 0.234602 0.550782
vt 0.203610 0.550782
vt 0.183501 0.550782
vt 0.254553 0.550782
vt 0.284247 0.550782
vt 0.446988 0.567190
vt 0.446988 0.627040
vt 0.407088 0.567190
vt 0.407088 0.627040
vt 0.160715 0.906111
vt 0.160715 0.666710
vt 0.180665 0.906111
vt 0.180665 0.666710
vt 0.087131 0.772960
vt 0.087131 0.686510
vt 0.107081 0.772960
vt 0.107081 0.686510
vt 0.043578 0.903208
vt 0.043578 0.663807
vt 0.063528 0.903208
vt 0.063528 0.663807
vt 0.113049 0.774591
vt 0.113049 0.688141
vt 0.132999 0.774591
vt 0.132999 0.688141
vt 0.142174 0.891532
vt 0.142174 0.678731
vt 0.155474 0.665431
vt 0.082324 0.678731
vt 0.069024 0.665431
vt 0.082324 0.891532
vt 0.069024 0.904832
vt 0.155474 0.904832
vt 0.239542 0.619880
vt 0.239542 0.566680
vt 0.252843 0.619880
vt 0.252843 0.566680
vt 0.086379 0.572054
vt 0.086379 0.555429
vt 0.099679 0.572054
vt 0.099679 0.555429
vt 0.114064 0.643941
vt 0.114064 0.545064
vt 0.127364 0.643941
vt 0.127364 0.545064
vt 0.143641 0.643941
vt 0.143641 0.545064
vt 0.156941 0.643941
vt 0.156941 0.545064
vt 0.069841 0.573102
vt 0.069841 0.556477
vt 0.083141 0.573102
vt 0.083141 0.556477
vt 0.231140 0.620655
vt 0.231140 0.567455
vt 0.244440 0.620655
vt 0.244440 0.567455
vt 0.178380 0.580392
vt 0.223176 0.609090
vt 0.169412 0.594390
vt 0.252668 0.647729
vt 0.223176 0.553353
vt 0.207308 0.558312
vt 0.069841 0.589727
vt 0.083141 0.589727
vt 0.412476 0.650582
vt 0.412476 0.551705
vt 0.425776 0.650582
vt 0.425776 0.551705
vt 0.439076 0.650582
vt 0.439076 0.551705
vt 0.090414 0.591355
vt 0.090414 0.574730
vt 0.103714 0.591355
vt 0.103714 0.574730
vt 0.218861 0.621430
vt 0.218861 0.568230
vt 0.232162 0.621430
vt 0.232162 0.568230
vt 0.254885 0.621917
vt 0.254885 0.568717
vt 0.268185 0.621917
vt 0.268185 0.568717
vt 0.279036 0.637582
vt 0.263168 0.642541
vt 0.263168 0.586804
vt 0.233675 0.548165
vt 0.316932 0.601504
vt 0.307963 0.615502
vt 0.225411 0.998709
vt 0.194553 0.839108
vt 0.280325 0.666207
vt 0.194553 0.825808
vt 0.181253 0.825808
vt 0.181253 0.839108
vt 0.021653 0.998709
vt 0.021653 0.666207
vt 0.201910 0.813382
vt 0.168660 0.813382
vt 0.019035 0.663756
vt 0.168660 0.846632
vt 0.019035 0.996257
vt 0.201910 0.846632
vt 0.351536 0.996257
vt 0.351535 0.663756
vt 0.682843 0.996297
vt 0.682843 0.663796
vt 0.555293 0.663756
vt 0.351535 0.996257
vt 0.684037 0.806869
vt 0.684037 0.996257
s 1
f 18/33/17 19/34/17 17/35/17
f 17/35/17 19/34/17 20/36/17
f 17/37/18 25/38/18 18/39/18
f 18/39/18 25/38/18 26/40/18
f 18/39/18 26/40/18 22/41/18
f 22/41/18 26/40/18 21/42/18
f 21/42/18 26/40/18 23/43/18
f 21/42/18 23/43/18 17/37/18
f 17/37/18 23/43/18 24/44/18
f 17/37/18 24/44/18 25/38/18
f 28/45/19 35/46/19 27/47/19
f 27/47/19 35/46/19 36/48/19
f 27/47/19 36/48/19 31/49/19
f 29/50/19 21/51/19 28/45/19
f 28/45/19 21/51/19 17/52/19
f 28/45/19 17/52/19 41/53/19
f 41/53/19 17/52/19 40/54/19
f 40/54/19 17/52/19 38/55/19
f 40/54/19 38/55/19 39/56/19
f 29/50/19 30/57/19 21/51/19
f 21/51/19 30/57/19 44/58/19
f 44/58/19 30/57/19 27/47/19
f 44/58/19 27/47/19 31/49/19
f 32/59/19 33/60/19 31/49/19
f 31/49/19 33/60/19 43/61/19
f 31/49/19 43/61/19 44/58/19
f 33/60/19 34/62/19 43/61/19
f 43/61/19 34/62/19 20/63/19
f 20/63/19 34/62/19 35/46/19
f 20/63/19 35/46/19 42/64/19
f 42/64/19 35/46/19 28/45/19
f 42/64/19 28/45/19 41/53/19
f 38/55/19 17/52/19 37/65/19
f 37/65/19 17/52/19 20/63/19
f 37/65/19 20/63/19 42/64/19
f 46/66/20 52/67/20 45/68/20
f 45/68/20 52/67/20 49/69/20
f 45/68/20 49/69/20 50/70/20
f 46/66/20 47/71/20 52/67/20
f 52/67/20 47/71/20 51/72/20
f 51/72/20 47/71/20 48/73/20
f 51/72/20 48/73/20 50/70/20
f 50/70/20 48/73/20 45/68/20
f 53/74/19 45/75/19 54/76/19
f 54/76/19 45/75/19 48/77/19
f 47/78/21 55/79/21 48/80/21
f 48/80/21 55/79/21 54/81/21
f 55/82/22 56/83/22 54/84/22
f 54/84/22 56/83/22 53/85/22
f 56/86/23 46/87/23 53/88/23
f 53/88/23 46/87/23 45/89/23
f 56/90/24 55/91/24 46/92/24
f 46/92/24 55/91/24 47/93/24
f 60/94/19 57/95/19 58/96/19
f 58/96/19 57/95/19 50/97/19
f 58/96/19 50/97/19 49/98/19
f 58/96/19 59/99/19 60/94/19
f 52/100/23 61/101/23 49/102/23
f 49/102/23 61/101/23 58/103/23
f 61/104/25 62/105/25 58/106/25
f 58/106/25 62/105/25 59/107/25
f 63/108/18 64/109/18 60/110/18
f 60/110/18 64/109/18 57/111/18
f 64/112/21 51/113/21 57/114/21
f 57/114/21 51/113/21 50/115/21
f 52/116/24 51/117/24 61/118/24
f 61/118/24 51/117/24 64/119/24
f 61/118/24 64/119/24 63/120/24
f 63/120/24 62/121/24 61/118/24
f 66/122/25 72/123/25 65/124/25
f 65/124/25 72/123/25 69/125/25
f 65/124/25 69/125/25 70/126/25
f 66/122/25 67/127/25 72/123/25
f 72/123/25 67/127/25 71/128/25
f 71/128/25 67/127/25 68/129/25
f 71/128/25 68/129/25 70/126/25
f 70/126/25 68/129/25 65/124/25
f 73/130/19 74/131/19 68/132/19
f 68/132/19 74/131/19 65/133/19
f 75/134/18 76/135/18 73/122/18
f 73/122/18 76/135/18 74/127/18
f 76/136/26 66/137/26 74/138/26
f 74/138/26 66/137/26 65/139/26
f 67/140/27 75/136/27 68/141/27
f 68/141/27 75/136/27 73/138/27
f 67/131/24 66/130/24 75/142/24
f 75/142/24 66/130/24 76/143/24
f 78/144/18 84/145/18 77/134/18
f 77/134/18 84/145/18 81/146/18
f 77/134/18 81/146/18 82/147/18
f 78/144/18 79/148/18 84/145/18
f 84/145/18 79/148/18 83/149/18
f 83/149/18 79/148/18 80/135/18
f 83/149/18 80/135/18 82/147/18
f 82/147/18 80/135/18 77/134/18
f 85/142/19 86/143/19 80/150/19
f 80/150/19 86/143/19 77/151/19
f 87/152/27 78/140/27 86/153/27
f 86/153/27 78/140/27 77/141/27
f 79/154/26 88/152/26 80/155/26
f 80/155/26 88/152/26 85/153/26
f 88/156/25 87/157/25 85/158/25
f 85/158/25 87/157/25 86/159/25
f 87/150/24 88/151/24 78/137/24
f 78/137/24 88/151/24 79/160/24
f 89/161/19 90/162/19 81/163/19
f 81/163/19 90/162/19 82/164/19
f 91/161/26 83/165/26 90/162/26
f 90/162/26 83/165/26 82/166/26
f 84/165/27 92/167/27 81/166/27
f 81/166/27 92/167/27 89/168/27
f 91/169/24 92/170/24 83/171/24
f 83/171/24 92/170/24 84/172/24
f 24/173/19 23/174/19 69/175/19
f 69/175/19 23/174/19 70/176/19
f 26/176/27 71/177/27 23/175/27
f 23/175/27 71/177/27 70/178/27
f 72/179/26 25/180/26 69/181/26
f 69/181/26 25/180/26 24/182/26
f 72/183/24 71/184/24 25/185/24
f 25/185/24 71/184/24 26/186/24
f 93/187/18 94/188/18 96/189/18
f 96/189/18 94/188/18 95/190/18
f 97/191/28 98/192/28 100/193/28
f 100/193/28 98/192/28 99/194/28
f 99/195/19 96/196/19 100/197/19
f 100/197/19 96/196/19 95/198/19
f 101/199/29 102/200/29 104/201/29
f 104/201/29 102/200/29 103/202/29
f 105/203/25 106/204/25 108/205/25
f 108/205/25 106/204/25 107/206/25
f 104/207/19 103/208/19 107/209/19
f 107/209/19 103/208/19 108/210/19
f 109/211/30 110/212/30 112/213/30
f 112/213/30 110/212/30 111/214/30
f 113/215/31 114/216/31 116/217/31
f 116/217/31 114/216/31 115/218/31
f 115/219/19 112/220/19 116/221/19
f 116/221/19 112/220/19 111/222/19
f 117/223/32 118/224/32 120/225/32
f 120/225/32 118/224/32 119/226/32
f 120/227/19 119/228/19 122/229/19
f 122/229/19 119/228/19 121/230/19
f 123/231/33 124/232/33 126/233/33
f 126/233/33 124/232/33 125/234/33
f 127/235/19 128/236/19 125/237/19
f 125/237/19 128/236/19 126/238/19
f 114/239/19 113/240/19 123/241/19
f 123/241/19 113/240/19 124/242/19
f 102/243/19 101/244/19 117/245/19
f 117/245/19 101/244/19 118/246/19
f 93/247/19 106/248/19 94/249/19
f 94/249/19 106/248/19 105/250/19
f 97/251/19 110/252/19 98/253/19
f 98/253/19 110/252/19 109/254/19
f 120/255/26 122/256/26 117/257/26
f 117/257/26 122/256/26 129/258/26
f 117/257/26 129/258/26 102/259/26
f 102/259/26 129/258/26 105/260/26
f 102/259/26 105/260/26 103/261/26
f 103/261/26 105/260/26 108/262/26
f 130/263/26 97/264/26 129/258/26
f 129/258/26 97/264/26 94/265/26
f 129/258/26 94/265/26 105/260/26
f 127/266/26 124/267/26 130/263/26
f 130/263/26 124/267/26 113/268/26
f 130/263/26 113/268/26 110/269/26
f 110/269/26 113/268/26 111/270/26
f 111/270/26 113/268/26 116/271/26
f 127/266/26 125/272/26 124/267/26
f 110/269/26 97/264/26 130/263/26
f 100/273/26 95/274/26 97/264/26
f 97/264/26 95/274/26 94/265/26
f 130/275/25 131/276/25 127/277/25
f 127/277/25 131/276/25 128/278/25
f 126/279/27 128/280/27 123/281/27
f 123/281/27 128/280/27 131/282/27
f 123/281/27 131/282/27 114/283/27
f 114/283/27 131/282/27 109/284/27
f 114/283/27 109/284/27 115/285/27
f 115/285/27 109/284/27 112/286/27
f 132/287/27 93/288/27 131/282/27
f 131/282/27 93/288/27 98/289/27
f 131/282/27 98/289/27 109/284/27
f 121/290/27 118/291/27 132/287/27
f 132/287/27 118/291/27 101/292/27
f 132/287/27 101/292/27 106/293/27
f 106/293/27 101/292/27 107/294/27
f 107/294/27 101/292/27 104/295/27
f 121/290/27 119/296/27 118/291/27
f 106/293/27 93/288/27 132/287/27
f 96/297/27 99/298/27 93/288/27
f 93/288/27 99/298/27 98/289/27
f 132/299/18 129/300/18 121/301/18
f 121/301/18 129/300/18 122/302/18
f 28/303/26 27/304/26 134/305/26
f 134/305/26 27/304/26 133/306/26
f 29/307/18 28/308/18 135/309/18
f 135/309/18 28/308/18 134/310/18
f 30/311/27 29/312/27 136/313/27
f 136/313/27 29/312/27 135/314/27
f 27/315/25 30/316/25 133/317/25
f 133/317/25 30/316/25 136/318/25
f 130/319/19 129/320/19 136/321/19
f 136/321/19 129/320/19 132/322/19
f 136/321/19 132/322/19 133/323/19
f 133/323/19 132/322/19 131/324/19
f 133/323/19 131/324/19 134/325/19
f 134/325/19 131/324/19 130/319/19
f 134/325/19 130/319/19 135/326/19
f 135/326/19 130/319/19 136/321/19
f 32/327/34 31/328/34 138/329/34
f 138/329/34 31/328/34 137/330/34
f 31/331/35 36/332/35 137/333/35
f 137/333/35 36/332/35 139/334/35
f 36/335/36 35/336/36 139/337/36
f 139/337/36 35/336/36 140/338/36
f 35/339/37 34/340/37 140/341/37
f 140/341/37 34/340/37 141/342/37
f 34/343/38 33/344/38 141/345/38
f 141/345/38 33/344/38 142/346/38
f 33/347/39 32/348/39 142/349/39
f 142/349/39 32/348/39 138/350/39
f 142/351/19 138/352/19 141/353/19
f 141/353/19 138/352/19 140/354/19
f 140/354/19 138/352/19 139/355/19
f 139/355/19 138/352/19 137/356/19
f 38/357/40 37/343/40 144/358/40
f 144/358/40 37/343/40 143/345/40
f 37/359/34 42/360/34 143/361/34
f 143/361/34 42/360/34 145/362/34
f 42/361/39 41/362/39 145/363/39
f 145/363/39 41/362/39 146/364/39
f 41/365/41 40/366/41 146/367/41
f 146/367/41 40/366/41 147/368/41
f 40/369/37 39/370/37 147/371/37
f 147/371/37 39/370/37 148/372/37
f 39/373/36 38/374/36 148/375/36
f 148/375/36 38/374/36 144/376/36
f 144/377/19 143/378/19 148/379/19
f 148/379/19 143/378/19 145/380/19
f 148/379/19 145/380/19 146/381/19
f 146/381/19 147/382/19 148/379/19
f 19/383/26 63/384/26 20/385/26
f 20/385/26 63/384/26 60/386/26
f 20/385/26 60/386/26 59/387/26
f 63/384/26 19/383/26 62/388/26
f 62/388/26 19/383/26 149/389/26
f 62/388/26 149/389/26 43/390/26
f 62/388/26 43/390/26 59/387/26
f 59/387/26 43/390/26 20/385/26
f 91/391/25 90/392/25 43/393/25
f 43/393/25 90/392/25 89/394/25
f 43/393/25 89/394/25 44/395/25
f 44/395/25 89/394/25 92/396/25
f 44/395/25 92/396/25 150/397/25
f 150/397/25 92/396/25 91/391/25
f 150/397/25 91/391/25 149/398/25
f 149/398/25 91/391/25 43/393/25
f 21/51/27 44/58/27 22/399/27
f 22/399/27 44/58/27 150/400/27
f 149/398/24 19/401/24 150/402/24
f 150/402/24 19/401/24 18/403/24
f 150/402/24 18/403/24 22/404/24
