# Blender 4.4.3
# www.blender.org
o ps1_mc_fusion
v 0.717484 5.801924 -0.899276
v 0.717484 5.905452 -0.512906
v 0.717484 5.016800 -0.274792
v 0.717484 4.913272 -0.661162
v 1.437484 4.913272 -0.661162
v 1.437484 5.016800 -0.274792
v -0.322516 5.801924 -0.899276
v -0.322516 5.905452 -0.512905
v -0.322516 5.016800 -0.274792
v -0.322516 4.913272 -0.661162
v 0.617484 5.905452 -0.512906
v 0.617484 5.801924 -0.899276
v 0.617484 4.913272 -0.661162
v 0.617484 5.016800 -0.274792
v -0.422516 5.905452 -0.512905
v -0.422516 5.801924 -0.899276
v -0.422516 4.913272 -0.661162
v -0.422516 5.016800 -0.274792
v -1.362516 4.913272 -0.661162
v -1.362516 5.016800 -0.274791
v -1.362516 6.098637 -0.564669
v 1.437484 6.098637 -0.564670
v 1.437484 5.995110 -0.951040
v -1.362516 5.995110 -0.951039
v -2.062516 3.245136 -0.348772
v -1.992516 3.027803 -0.290537
v -1.992516 3.216741 0.414589
v -2.062516 3.434074 0.356354
v -2.062516 5.961463 -1.076609
v -2.062516 6.150401 -0.371483
v 2.137484 5.961463 -1.076610
v 2.137484 6.150401 -0.371485
v 2.137484 3.245136 -0.348773
v 2.137484 3.434074 0.356353
v 2.067484 3.027803 -0.290539
v 2.067484 3.216741 0.414587
v 2.137484 2.810470 -0.232304
v 2.137484 2.999408 0.472822
v 2.067484 2.593137 -0.174070
v 2.067484 2.782074 0.531056
v 2.137484 2.375803 -0.115836
v 2.137484 2.564741 0.589290
v 2.067484 2.158470 -0.057601
v 2.067484 2.347408 0.647524
v 2.137484 1.941137 0.000633
v 2.137484 2.130075 0.705759
v 2.067484 1.723803 0.058867
v 2.067484 1.912741 0.763993
v 2.137484 1.506470 0.117101
v 2.137484 1.695408 0.822227
v 2.137484 1.257404 0.183838
v 2.137484 1.446342 0.888964
v 1.437484 0.581256 0.365012
v 1.618657 0.604295 0.358839
v 1.787484 0.671843 0.340739
v 1.932459 0.779295 0.311947
v 2.043702 0.919330 0.274425
v 2.113632 1.082405 0.230729
v 2.113632 1.271343 0.935855
v 2.043702 1.108268 0.979551
v 1.932459 0.968233 1.017073
v 1.787484 0.860780 1.045865
v 1.618657 0.793233 1.063964
v 1.437485 0.770194 1.070138
v -1.362516 0.581256 0.365013
v -1.362516 0.770194 1.070139
v -2.062516 1.257404 0.183840
v -2.038664 1.082405 0.230731
v -1.968734 0.919330 0.274426
v -1.857491 0.779295 0.311949
v -1.712516 0.671843 0.340740
v -1.543689 0.604295 0.358840
v -1.543689 0.793233 1.063966
v -1.712516 0.860780 1.045866
v -1.857491 0.968233 1.017074
v -1.968734 1.108268 0.979552
v -2.038664 1.271343 0.935857
v -2.062516 1.446342 0.888966
v -2.062516 1.506470 0.117103
v -2.062516 1.695408 0.822229
v -1.992516 1.723803 0.058868
v -1.992516 1.912741 0.763994
v -2.062516 1.941137 0.000634
v -2.062516 2.130075 0.705760
v -1.992516 2.158470 -0.057600
v -1.992516 2.347408 0.647526
v -2.062516 2.375803 -0.115834
v -2.062516 2.564741 0.589291
v -1.992516 2.593137 -0.174069
v -1.992516 2.782074 0.531057
v -2.062516 2.810470 -0.232303
v -2.062516 2.999408 0.472823
vn 1.0000 -0.0000 -0.0000
vn -0.0000 0.9659 -0.2588
vn -1.0000 -0.0000 -0.0000
vn -0.0000 -0.2588 -0.9659
vn -0.0000 0.2588 0.9659
vn -0.9549 -0.2869 0.0769
vn 0.9549 -0.2869 0.0769
vn 0.9549 0.2869 -0.0769
vn -0.0000 -0.9659 0.2588
vn 0.2588 -0.9330 0.2500
vn 0.5000 -0.8365 0.2241
vn 0.7071 -0.6830 0.1830
vn 0.8660 -0.4830 0.1294
vn 0.9659 -0.2500 0.0670
vn -0.9659 -0.2500 0.0670
vn -0.8660 -0.4830 0.1294
vn -0.7071 -0.6830 0.1830
vn -0.5000 -0.8365 0.2241
vn -0.2588 -0.9330 0.2500
vn -0.9549 0.2869 -0.0769
vt 0.198737 0.046078
vt 0.198737 -0.000476
vt 0.224758 0.046078
vt 0.224758 -0.000476
vt 0.204103 0.047396
vt 0.250658 0.047396
vt 0.204103 0.024748
vt 0.250658 0.024748
vt 0.204103 0.034593
vt 0.250658 0.034593
vt 0.204103 0.037551
vt 0.250658 0.037551
vt 0.217688 0.108563
vt 0.240965 -0.000840
vt 0.217688 0.120202
vt 0.240965 0.325042
vt 0.217688 0.229605
vt 0.217688 0.241244
vt 0.151739 0.241570
vt 0.175016 0.325369
vt 0.044664 0.325369
vt 0.044664 0.241570
vt 0.044664 0.108890
vt 0.044664 -0.000513
vt 0.151739 0.108890
vt 0.175016 -0.000513
vt 0.044664 0.229932
vt 0.044664 0.120529
vt 0.151739 0.229932
vt 0.151739 0.120529
vt 0.251310 0.032908
vt 0.204756 0.032908
vt 0.251310 0.021269
vt 0.204756 0.021269
vt 0.251310 0.047505
vt 0.204756 0.047504
vt 0.251310 0.035866
vt 0.204756 0.035866
vt 0.175460 -0.000476
vt 0.198737 0.120565
vt 0.175460 0.325406
vt 0.198737 0.229969
vt 0.198737 0.241607
vt 0.198737 0.108927
vt 0.224758 0.108927
vt 0.224758 0.120566
vt 0.224758 0.229969
vt 0.224758 0.241607
vt 0.224758 0.325406
vt 0.175460 0.046078
vt 0.456907 0.761095
vt 0.429482 0.761095
vt 0.456907 0.709336
vt 0.429482 0.709336
vt 0.785678 0.933673
vt 0.495721 0.933673
vt 0.785678 0.858403
vt 0.495721 0.858403
vt 0.463471 0.074347
vt 0.382001 0.089478
vt 0.463471 0.027793
vt 0.382001 0.004515
vt 0.870824 0.004516
vt 0.789353 0.074347
vt 0.870824 0.089478
vt 0.789353 0.027793
vt 0.778296 0.929981
vt 0.488338 0.929981
vt 0.778296 0.854712
vt 0.488338 0.854712
vt 0.403425 0.761870
vt 0.376000 0.761870
vt 0.403425 0.710111
vt 0.376000 0.710111
vt 0.373415 0.761870
vt 0.373415 0.710111
vt 0.878635 0.804480
vt 0.793673 0.804479
vt 0.878635 0.783151
vt 0.793673 0.783151
vt 0.878635 0.761822
vt 0.793673 0.761822
vt 0.878635 0.740493
vt 0.793673 0.740493
vt 0.878635 0.719164
vt 0.793673 0.719164
vt 0.878635 0.697835
vt 0.793673 0.697835
vt 0.878635 0.676506
vt 0.793673 0.676506
vt 0.804875 0.940157
vt 0.478993 0.940156
vt 0.804875 0.855195
vt 0.478993 0.855195
vt 0.976462 0.805105
vt 0.891500 0.805105
vt 0.976462 0.783776
vt 0.891500 0.783776
vt 0.976462 0.762448
vt 0.891500 0.762448
vt 0.976462 0.741119
vt 0.891500 0.741119
vt 0.976462 0.719790
vt 0.891500 0.719790
vt 0.976462 0.698461
vt 0.891500 0.698461
vt 0.976462 0.677132
vt 0.891500 0.677132
vt 0.426897 0.761095
vt 0.426897 0.709336
vt 0.262274 0.404898
vt 0.274353 0.365984
vt 0.274403 0.443796
vt 0.976391 0.365536
vt 0.976441 0.443348
vt 0.988520 0.404434
vt 0.262224 0.327086
vt 0.274304 0.288172
vt 0.383060 0.005757
vt 0.867224 0.005447
vt 0.262175 0.249274
vt 0.274254 0.210360
vt 0.262125 0.171462
vt 0.297494 0.041263
vt 0.322550 0.022012
vt 0.351735 0.009901
vt 0.262097 0.126875
vt 0.278274 0.066344
vt 0.266201 0.095545
vt 0.898555 0.009552
vt 0.976292 0.209911
vt 0.976341 0.287724
vt 0.988471 0.326622
vt 0.927755 0.021625
vt 0.952836 0.040845
vt 0.988372 0.170998
vt 0.988343 0.126411
vt 0.972088 0.065901
vt 0.984198 0.095086
vt 0.988421 0.248810
vt 0.262324 0.482710
vt 0.988570 0.482246
vt 0.262635 0.968975
vt 0.988881 0.968511
vt 0.256362 0.611775
vt 0.252143 0.638338
vt 0.252126 0.585222
vt 0.006941 0.638644
vt 0.006924 0.585528
vt 0.002705 0.612091
vt 0.002722 0.665207
vt 0.256379 0.664890
vt 0.002831 0.997139
vt 0.256488 0.996822
vt 0.002687 0.558976
vt 0.006906 0.532412
vt 0.044892 0.339631
vt 0.213997 0.339420
vt 0.002670 0.505860
vt 0.006889 0.479296
vt 0.002653 0.452744
vt 0.015006 0.363868
vt 0.023757 0.350727
vt 0.033951 0.342460
vt 0.002643 0.422308
vt 0.008293 0.380989
vt 0.004076 0.400922
vt 0.224940 0.342222
vt 0.252091 0.478990
vt 0.252108 0.532106
vt 0.256345 0.558659
vt 0.235138 0.350463
vt 0.243899 0.363582
vt 0.256310 0.452427
vt 0.256300 0.421992
vt 0.250623 0.380686
vt 0.254852 0.400609
vt 0.256327 0.505543
s 1
f 1/1/1 2/2/1 4/3/1
f 4/3/1 2/2/1 3/4/1
f 4/5/2 3/6/2 5/7/2
f 5/7/2 3/6/2 6/8/2
f 7/1/1 8/2/1 10/3/1
f 10/3/1 8/2/1 9/4/1
f 11/1/3 12/2/3 14/3/3
f 14/3/3 12/2/3 13/4/3
f 10/9/2 9/10/2 13/11/2
f 13/11/2 9/10/2 14/12/2
f 15/1/3 16/2/3 18/3/3
f 18/3/3 16/2/3 17/4/3
f 19/9/2 20/10/2 17/11/2
f 17/11/2 20/10/2 18/12/2
f 15/13/4 21/14/4 8/15/4
f 8/15/4 21/14/4 22/16/4
f 8/15/4 22/16/4 11/17/4
f 11/17/4 22/16/4 2/18/4
f 2/19/4 22/20/4 6/21/4
f 2/19/4 6/21/4 3/22/4
f 18/23/4 20/24/4 15/25/4
f 15/25/4 20/24/4 21/26/4
f 14/27/4 9/28/4 11/29/4
f 11/29/4 9/28/4 8/30/4
f 8/31/2 7/32/2 15/33/2
f 15/33/2 7/32/2 16/34/2
f 2/35/2 1/36/2 11/37/2
f 11/37/2 1/36/2 12/38/2
f 24/39/5 7/40/5 23/41/5
f 23/41/5 7/40/5 12/42/5
f 23/41/5 12/42/5 1/43/5
f 7/40/5 24/39/5 16/44/5
f 16/44/5 24/39/5 19/4/5
f 16/44/5 19/4/5 17/45/5
f 10/46/5 13/47/5 7/40/5
f 7/40/5 13/47/5 12/42/5
f 4/48/5 5/49/5 1/43/5
f 1/43/5 5/49/5 23/41/5
f 24/50/1 21/39/1 19/3/1
f 19/3/1 21/39/1 20/4/1
f 22/50/3 23/39/3 6/3/3
f 6/3/3 23/39/3 5/4/3
f 25/51/6 26/52/6 28/53/6
f 28/53/6 26/52/6 27/54/6
f 29/55/3 25/56/3 30/57/3
f 30/57/3 25/56/3 28/58/3
f 24/59/2 29/60/2 21/61/2
f 21/61/2 29/60/2 30/62/2
f 21/61/2 30/62/2 32/63/2
f 24/59/2 23/64/2 29/60/2
f 29/60/2 23/64/2 31/65/2
f 31/65/2 23/64/2 22/66/2
f 31/65/2 22/66/2 32/63/2
f 32/63/2 22/66/2 21/61/2
f 33/67/1 31/68/1 34/69/1
f 34/69/1 31/68/1 32/70/1
f 35/71/7 33/72/7 36/73/7
f 36/73/7 33/72/7 34/74/7
f 37/71/8 35/72/8 38/73/8
f 38/73/8 35/72/8 36/74/8
f 39/71/7 37/72/7 40/73/7
f 40/73/7 37/72/7 38/74/7
f 41/71/8 39/72/8 42/73/8
f 42/73/8 39/72/8 40/74/8
f 43/71/7 41/72/7 44/73/7
f 44/73/7 41/72/7 42/74/7
f 45/71/8 43/72/8 46/73/8
f 46/73/8 43/72/8 44/74/8
f 47/71/7 45/72/7 48/73/7
f 48/73/7 45/72/7 46/74/7
f 49/71/8 47/72/8 50/73/8
f 50/73/8 47/72/8 48/74/8
f 51/71/1 49/75/1 52/73/1
f 52/73/1 49/75/1 50/76/1
f 64/77/9 53/78/9 63/79/10
f 63/79/10 53/78/9 54/80/10
f 63/79/10 54/80/10 62/81/11
f 62/81/11 54/80/10 55/82/11
f 62/81/11 55/82/11 61/83/12
f 61/83/12 55/82/11 56/84/12
f 61/83/12 56/84/12 60/85/13
f 60/85/13 56/84/12 57/86/13
f 60/85/13 57/86/13 59/87/14
f 59/87/14 57/86/13 58/88/14
f 59/87/14 58/88/14 52/89/1
f 52/89/1 58/88/14 51/90/1
f 65/91/9 53/92/9 66/93/9
f 66/93/9 53/92/9 64/94/9
f 78/95/3 67/96/3 77/97/15
f 77/97/15 67/96/3 68/98/15
f 77/97/15 68/98/15 76/99/16
f 76/99/16 68/98/15 69/100/16
f 76/99/16 69/100/16 75/101/17
f 75/101/17 69/100/16 70/102/17
f 75/101/17 70/102/17 74/103/18
f 74/103/18 70/102/17 71/104/18
f 74/103/18 71/104/18 73/105/19
f 73/105/19 71/104/18 72/106/19
f 73/105/19 72/106/19 66/107/9
f 66/107/9 72/106/19 65/108/9
f 79/51/3 67/109/3 80/53/3
f 80/53/3 67/109/3 78/110/3
f 81/51/20 79/52/20 82/53/20
f 82/53/20 79/52/20 80/54/20
f 83/51/6 81/52/6 84/53/6
f 84/53/6 81/52/6 82/54/6
f 85/51/20 83/52/20 86/53/20
f 86/53/20 83/52/20 84/54/20
f 87/51/6 85/52/6 88/53/6
f 88/53/6 85/52/6 86/54/6
f 89/51/20 87/52/20 90/53/20
f 90/53/20 87/52/20 88/54/20
f 91/51/6 89/52/6 92/53/6
f 92/53/6 89/52/6 90/54/6
f 26/51/20 91/52/20 27/53/20
f 27/53/20 91/52/20 92/54/20
f 92/111/5 90/112/5 27/113/5
f 27/113/5 90/112/5 40/114/5
f 27/113/5 40/114/5 36/115/5
f 36/115/5 40/114/5 38/116/5
f 88/117/5 86/118/5 90/112/5
f 90/112/5 86/118/5 66/119/5
f 90/112/5 66/119/5 64/120/5
f 84/121/5 82/122/5 86/118/5
f 86/118/5 82/122/5 66/119/5
f 80/123/5 75/124/5 82/122/5
f 82/122/5 75/124/5 74/125/5
f 82/122/5 74/125/5 73/126/5
f 80/123/5 78/127/5 75/124/5
f 75/124/5 78/127/5 76/128/5
f 76/128/5 78/127/5 77/129/5
f 73/126/5 66/119/5 82/122/5
f 63/130/5 48/131/5 64/120/5
f 64/120/5 48/131/5 44/132/5
f 64/120/5 44/132/5 40/114/5
f 40/114/5 44/132/5 42/133/5
f 63/130/5 62/134/5 48/131/5
f 48/131/5 62/134/5 61/135/5
f 48/131/5 61/135/5 50/136/5
f 50/136/5 61/135/5 52/137/5
f 52/137/5 61/135/5 60/138/5
f 52/137/5 60/138/5 59/139/5
f 48/131/5 46/140/5 44/132/5
f 27/113/5 36/115/5 28/141/5
f 28/141/5 36/115/5 34/142/5
f 28/141/5 34/142/5 30/143/5
f 30/143/5 34/142/5 32/144/5
f 64/120/5 40/114/5 90/112/5
f 91/145/4 26/146/4 89/147/4
f 89/147/4 26/146/4 35/148/4
f 89/147/4 35/148/4 39/149/4
f 39/149/4 35/148/4 37/150/4
f 35/148/4 26/146/4 33/151/4
f 33/151/4 26/146/4 25/152/4
f 33/151/4 25/152/4 31/153/4
f 31/153/4 25/152/4 29/154/4
f 41/155/4 43/156/4 39/149/4
f 39/149/4 43/156/4 53/157/4
f 39/149/4 53/157/4 65/158/4
f 45/159/4 47/160/4 43/156/4
f 43/156/4 47/160/4 53/157/4
f 49/161/4 56/162/4 47/160/4
f 47/160/4 56/162/4 55/163/4
f 47/160/4 55/163/4 54/164/4
f 49/161/4 51/165/4 56/162/4
f 56/162/4 51/165/4 57/166/4
f 57/166/4 51/165/4 58/167/4
f 54/164/4 53/157/4 47/160/4
f 72/168/4 81/169/4 65/158/4
f 65/158/4 81/169/4 85/170/4
f 65/158/4 85/170/4 89/147/4
f 89/147/4 85/170/4 87/171/4
f 72/168/4 71/172/4 81/169/4
f 81/169/4 71/172/4 70/173/4
f 81/169/4 70/173/4 79/174/4
f 79/174/4 70/173/4 67/175/4
f 67/175/4 70/173/4 69/176/4
f 67/175/4 69/176/4 68/177/4
f 81/169/4 83/178/4 85/170/4
f 65/158/4 89/147/4 39/149/4
